<mxfile host="app.diagrams.net" modified="2023-05-18T14:45:29.212Z" agent="Mozilla/5.0 (Macintosh; Intel Mac OS X 10_15_7) AppleWebKit/537.36 (KHTML, like Gecko) Chrome/111.0.0.0 Safari/537.36" etag="IW-ysou385Eu_yPr3frX" version="21.3.1" type="device">
  <diagram name="Страница 1" id="0q42XklJLqaTBnp1dykQ">
    <mxGraphModel dx="1674" dy="859" grid="1" gridSize="10" guides="1" tooltips="1" connect="1" arrows="1" fold="1" page="1" pageScale="1" pageWidth="827" pageHeight="1169" math="0" shadow="0">
      <root>
        <mxCell id="0" />
        <mxCell id="1" parent="0" />
        <mxCell id="UJFqDjF3FLWo2ykv4Mk8-4" value="" style="edgeStyle=orthogonalEdgeStyle;rounded=0;orthogonalLoop=1;jettySize=auto;html=1;" edge="1" parent="1" source="UJFqDjF3FLWo2ykv4Mk8-1" target="UJFqDjF3FLWo2ykv4Mk8-2">
          <mxGeometry relative="1" as="geometry" />
        </mxCell>
        <mxCell id="UJFqDjF3FLWo2ykv4Mk8-1" value="start" style="ellipse;whiteSpace=wrap;html=1;" vertex="1" parent="1">
          <mxGeometry x="340" y="120" width="120" height="80" as="geometry" />
        </mxCell>
        <mxCell id="UJFqDjF3FLWo2ykv4Mk8-5" value="" style="edgeStyle=orthogonalEdgeStyle;rounded=0;orthogonalLoop=1;jettySize=auto;html=1;" edge="1" parent="1" source="UJFqDjF3FLWo2ykv4Mk8-2" target="UJFqDjF3FLWo2ykv4Mk8-3">
          <mxGeometry relative="1" as="geometry" />
        </mxCell>
        <mxCell id="UJFqDjF3FLWo2ykv4Mk8-2" value="&lt;div style=&quot;font-family: Menlo, Monaco, &amp;quot;Courier New&amp;quot;, monospace; font-weight: normal; font-size: 12px; line-height: 18px;&quot;&gt;&lt;div style=&quot;&quot;&gt;original_list = [&quot;Hello&quot;, &quot;2&quot;, &quot;world&quot;, &quot;:-)&quot;] &lt;/div&gt;&lt;div style=&quot;&quot;&gt;index = 0&lt;/div&gt;&lt;/div&gt;" style="rounded=0;whiteSpace=wrap;html=1;" vertex="1" parent="1">
          <mxGeometry x="285" y="250" width="230" height="60" as="geometry" />
        </mxCell>
        <mxCell id="UJFqDjF3FLWo2ykv4Mk8-7" value="" style="edgeStyle=orthogonalEdgeStyle;rounded=0;orthogonalLoop=1;jettySize=auto;html=1;" edge="1" parent="1" source="UJFqDjF3FLWo2ykv4Mk8-3" target="UJFqDjF3FLWo2ykv4Mk8-6">
          <mxGeometry relative="1" as="geometry" />
        </mxCell>
        <mxCell id="UJFqDjF3FLWo2ykv4Mk8-3" value="&lt;div style=&quot;font-family: Menlo, Monaco, &amp;quot;Courier New&amp;quot;, monospace; font-weight: normal; font-size: 12px; line-height: 18px;&quot;&gt;&lt;div style=&quot;&quot;&gt;new_list = []&lt;/div&gt;&lt;/div&gt;" style="rounded=0;whiteSpace=wrap;html=1;" vertex="1" parent="1">
          <mxGeometry x="285" y="370" width="230" height="60" as="geometry" />
        </mxCell>
        <mxCell id="UJFqDjF3FLWo2ykv4Mk8-9" value="" style="edgeStyle=orthogonalEdgeStyle;rounded=0;orthogonalLoop=1;jettySize=auto;html=1;" edge="1" parent="1" source="UJFqDjF3FLWo2ykv4Mk8-6" target="UJFqDjF3FLWo2ykv4Mk8-8">
          <mxGeometry relative="1" as="geometry" />
        </mxCell>
        <mxCell id="UJFqDjF3FLWo2ykv4Mk8-21" value="" style="edgeStyle=orthogonalEdgeStyle;rounded=0;orthogonalLoop=1;jettySize=auto;html=1;" edge="1" parent="1" source="UJFqDjF3FLWo2ykv4Mk8-6" target="UJFqDjF3FLWo2ykv4Mk8-20">
          <mxGeometry relative="1" as="geometry" />
        </mxCell>
        <mxCell id="UJFqDjF3FLWo2ykv4Mk8-6" value="index&amp;lt;size" style="rhombus;whiteSpace=wrap;html=1;rounded=0;" vertex="1" parent="1">
          <mxGeometry x="250" y="490" width="300" height="80" as="geometry" />
        </mxCell>
        <mxCell id="UJFqDjF3FLWo2ykv4Mk8-11" value="" style="edgeStyle=orthogonalEdgeStyle;rounded=0;orthogonalLoop=1;jettySize=auto;html=1;" edge="1" parent="1" source="UJFqDjF3FLWo2ykv4Mk8-8" target="UJFqDjF3FLWo2ykv4Mk8-10">
          <mxGeometry relative="1" as="geometry" />
        </mxCell>
        <mxCell id="UJFqDjF3FLWo2ykv4Mk8-17" style="edgeStyle=orthogonalEdgeStyle;rounded=0;orthogonalLoop=1;jettySize=auto;html=1;entryX=1;entryY=0.633;entryDx=0;entryDy=0;entryPerimeter=0;" edge="1" parent="1" source="UJFqDjF3FLWo2ykv4Mk8-8" target="UJFqDjF3FLWo2ykv4Mk8-13">
          <mxGeometry relative="1" as="geometry">
            <Array as="points">
              <mxPoint x="640" y="690" />
              <mxPoint x="640" y="968" />
            </Array>
          </mxGeometry>
        </mxCell>
        <mxCell id="UJFqDjF3FLWo2ykv4Mk8-8" value="len(original_list[index])&amp;lt;=3" style="rhombus;whiteSpace=wrap;html=1;rounded=0;" vertex="1" parent="1">
          <mxGeometry x="251" y="650" width="300" height="80" as="geometry" />
        </mxCell>
        <mxCell id="UJFqDjF3FLWo2ykv4Mk8-14" value="" style="edgeStyle=orthogonalEdgeStyle;rounded=0;orthogonalLoop=1;jettySize=auto;html=1;" edge="1" parent="1" source="UJFqDjF3FLWo2ykv4Mk8-10" target="UJFqDjF3FLWo2ykv4Mk8-13">
          <mxGeometry relative="1" as="geometry" />
        </mxCell>
        <mxCell id="UJFqDjF3FLWo2ykv4Mk8-10" value="new_list = new_list.append(original_list[index])" style="whiteSpace=wrap;html=1;rounded=0;" vertex="1" parent="1">
          <mxGeometry x="220" y="820" width="360" height="60" as="geometry" />
        </mxCell>
        <mxCell id="UJFqDjF3FLWo2ykv4Mk8-12" value="yes" style="text;html=1;align=center;verticalAlign=middle;resizable=0;points=[];autosize=1;strokeColor=none;fillColor=none;" vertex="1" parent="1">
          <mxGeometry x="400" y="758" width="40" height="30" as="geometry" />
        </mxCell>
        <mxCell id="UJFqDjF3FLWo2ykv4Mk8-15" style="edgeStyle=orthogonalEdgeStyle;rounded=0;orthogonalLoop=1;jettySize=auto;html=1;entryX=0;entryY=0.5;entryDx=0;entryDy=0;" edge="1" parent="1" source="UJFqDjF3FLWo2ykv4Mk8-13" target="UJFqDjF3FLWo2ykv4Mk8-6">
          <mxGeometry relative="1" as="geometry">
            <mxPoint x="90" y="530" as="targetPoint" />
            <Array as="points">
              <mxPoint x="60" y="970" />
              <mxPoint x="60" y="530" />
            </Array>
          </mxGeometry>
        </mxCell>
        <mxCell id="UJFqDjF3FLWo2ykv4Mk8-13" value="index = index +1" style="whiteSpace=wrap;html=1;rounded=0;" vertex="1" parent="1">
          <mxGeometry x="310" y="930" width="180" height="60" as="geometry" />
        </mxCell>
        <mxCell id="UJFqDjF3FLWo2ykv4Mk8-16" value="no" style="text;html=1;align=center;verticalAlign=middle;resizable=0;points=[];autosize=1;strokeColor=none;fillColor=none;" vertex="1" parent="1">
          <mxGeometry x="520" y="648" width="40" height="30" as="geometry" />
        </mxCell>
        <mxCell id="UJFqDjF3FLWo2ykv4Mk8-18" value="yes" style="text;html=1;align=center;verticalAlign=middle;resizable=0;points=[];autosize=1;strokeColor=none;fillColor=none;" vertex="1" parent="1">
          <mxGeometry x="360" y="588" width="40" height="30" as="geometry" />
        </mxCell>
        <mxCell id="UJFqDjF3FLWo2ykv4Mk8-19" value="no" style="text;html=1;align=center;verticalAlign=middle;resizable=0;points=[];autosize=1;strokeColor=none;fillColor=none;" vertex="1" parent="1">
          <mxGeometry x="540" y="480" width="40" height="30" as="geometry" />
        </mxCell>
        <mxCell id="UJFqDjF3FLWo2ykv4Mk8-23" value="" style="edgeStyle=orthogonalEdgeStyle;rounded=0;orthogonalLoop=1;jettySize=auto;html=1;" edge="1" parent="1" source="UJFqDjF3FLWo2ykv4Mk8-20" target="UJFqDjF3FLWo2ykv4Mk8-22">
          <mxGeometry relative="1" as="geometry" />
        </mxCell>
        <mxCell id="UJFqDjF3FLWo2ykv4Mk8-20" value="print (new_list)" style="whiteSpace=wrap;html=1;rounded=0;" vertex="1" parent="1">
          <mxGeometry x="600" y="500" width="120" height="60" as="geometry" />
        </mxCell>
        <mxCell id="UJFqDjF3FLWo2ykv4Mk8-22" value="end&lt;br&gt;" style="ellipse;whiteSpace=wrap;html=1;rounded=0;" vertex="1" parent="1">
          <mxGeometry x="747" y="490" width="80" height="80" as="geometry" />
        </mxCell>
      </root>
    </mxGraphModel>
  </diagram>
</mxfile>
